# xmcd
#
# Track frame offsets:
#	150
#	15543
#	29595
#	47004
#	64251
#	79565
#	97113
#	115011
#	126813
#	146286
#	163079
#
# Disc length: 2398 seconds
#
# Revision: 4
# Processed by: cddbd v1.5.2PL0 Copyright (c) Steve Scherf et al.
# Submitted via: EZCDAudioConverter 6.0.2.1
#
DISCID=8c095c0b
DTITLE=Baillie and The Boys - Lovin' Every Minute
DYEAR=2003
DGENRE=Country
TTITLE0=I've Been There
TTITLE1=The God's Honest Truth
TTITLE2=Some Kind Of Luck
TTITLE3=Both Sides Now
TTITLE4=You're My Weakness (with Vince Gill)
TTITLE5=I Can't Help Myself
TTITLE6=I Know A Goodbye
TTITLE7=Lovin' Every Minute
TTITLE8=If I Didn't Love You
TTITLE9=Heartless Night
TTITLE10=While The Forgettin's Good
EXTD=
EXTT0=
EXTT1=
EXTT2=
EXTT3=
EXTT4=
EXTT5=
EXTT6=
EXTT7=
EXTT8=
EXTT9=
EXTT10=
PLAYORDER=
